<svg width="40" height="40" viewBox="0 0 40 40" fill="none" xmlns="http://www.w3.org/2000/svg">
<circle cx="20" cy="20" r="20" fill="url(#paint0_linear_217_7203)"/>
<path fill-rule="evenodd" clip-rule="evenodd" d="M11.3079 11.6496L13.419 10.5279L13.6673 11.0264L21.3667 6.53946L20.87 6.16554L20.2491 5.79163L20.0007 5.66699L7.33402 13.0206V13.2699L10.9353 11.2757L11.3079 11.6496ZM11.3078 16.3858L17.3928 12.7713L17.6412 13.2699L25.4647 8.78293L24.8438 8.40901L24.2229 8.15974L23.9745 8.0351L7.33398 17.6322V17.8815L10.9353 15.8873L11.3078 16.3858ZM19.3797 14.0177L11.3078 18.6293L10.9353 18.1308L7.33398 20.2496V19.8757L25.9614 9.15686L26.2098 9.2815L26.8307 9.65541L27.4516 9.90469L19.6281 14.3916L19.3797 14.0177ZM11.3078 20.8728L21.3667 15.1395L21.615 15.5134L29.4386 11.1511L28.8176 10.7771L28.1967 10.4032L27.9484 10.2786L7.33398 22.2438V22.4931L10.9353 20.4989L11.3078 20.8728ZM23.3536 16.2612L11.3078 23.2409L10.9353 22.7424L7.33398 24.8612V24.4873L29.9353 11.4004L30.3078 11.6496L30.8046 11.8989L31.4255 12.2728L23.602 16.7598L23.3536 16.2612ZM32.1706 12.7714L31.9222 12.5221L7.33398 26.8554V27.1047L10.9353 25.1105L11.3078 25.609L23.3536 18.5047L23.602 19.0032L32.6673 13.8931V13.0206L32.1706 12.7714ZM10.9352 27.3539L8.94831 28.6003L8.57576 28.351L32.6673 14.5163V16.1366L23.6019 21.3713L23.3535 20.8728L11.1836 27.8525L10.9352 27.3539ZM23.3535 23.2409L23.6019 23.7395L32.6673 18.38V16.7598L10.5627 29.5974L10.9352 29.7221L12.9222 28.4757L13.2947 28.9742L23.3535 23.2409ZM15.0334 29.7221L12.9223 30.8438L12.5497 30.7192L32.6674 19.1279V20.7481L23.602 25.9829L23.3537 25.4844L15.2818 30.2206L15.0334 29.7221ZM14.9091 31.9655L17.0202 30.8438L17.2685 31.3424L23.3535 27.8525L23.6019 28.3511L32.6672 23.1163V21.3713L14.5365 31.8409L14.9091 31.9655ZM16.8961 33.2119L16.5236 32.9627L32.6674 23.7395V25.3598L23.602 30.5945L23.3536 30.096L19.2556 32.4641L19.0072 31.9656L16.8961 33.2119ZM18.883 34.3337L20.8699 33.0873L21.2425 33.5858L23.3536 32.4641L23.6019 32.9626L32.6673 27.7279V25.9829L18.6346 34.209L18.883 34.3337ZM22.8569 7.28728L23.4778 7.66119L15.6542 12.1482L15.4059 11.6496L11.3078 14.0177L10.9353 13.5192L7.33398 15.638V15.2641L21.9876 6.78873L22.2359 7.03801L22.8569 7.28728Z" fill="white"/>
<defs>
<linearGradient id="paint0_linear_217_7203" x1="0" y1="40" x2="40" y2="40" gradientUnits="userSpaceOnUse">
<stop stop-color="#001C3A"/>
<stop offset="0.6" stop-color="#001E3D"/>
<stop offset="0.7" stop-color="#001F3F"/>
<stop offset="1" stop-color="#002042"/>
</linearGradient>
</defs>
</svg>
