<svg width="52" height="52" viewBox="0 0 52 52" fill="none" xmlns="http://www.w3.org/2000/svg">
<g filter="url(#filter0_d_217_9423)">
<path d="M25.9412 11.2098L23.5312 16.8198H21.1212C20.7212 16.8198 20.3312 16.8498 19.9512 16.9298L20.9512 14.5298L20.9912 14.4398L21.0512 14.2798C21.0812 14.2098 21.1012 14.1498 21.1312 14.0998C22.2912 11.4098 23.5912 10.5698 25.9412 11.2098Z" fill="#3E474F"/>
<path d="M32.7291 17.0905L32.7091 17.0805C32.1091 16.9105 31.4991 16.8205 30.8791 16.8205H24.6191L26.8691 11.5905L26.8991 11.5205C27.0391 11.5705 27.1891 11.6405 27.3391 11.6905L29.5491 12.6205C30.7791 13.1305 31.6391 13.6605 32.1691 14.3005C32.2591 14.4205 32.3391 14.5305 32.4191 14.6605C32.5091 14.8005 32.5791 14.9405 32.6191 15.0905C32.6591 15.1805 32.6891 15.2605 32.7091 15.3505C32.8591 15.8605 32.8691 16.4405 32.7291 17.0905Z" fill="#3E474F"/>
<path d="M26.5195 26.6601H26.7695C27.0695 26.6601 27.3195 26.3901 27.3195 26.0601C27.3195 25.6401 27.1995 25.5801 26.9395 25.4801L26.5195 25.3301V26.6601Z" fill="#5ED5A8"/>
<path d="M32.2902 18.5203C31.8402 18.3903 31.3702 18.3203 30.8802 18.3203H21.1202C20.4402 18.3203 19.8002 18.4503 19.2002 18.7103C17.4602 19.4603 16.2402 21.1903 16.2402 23.2003V25.1503C16.2402 25.3903 16.2602 25.6203 16.2902 25.8603C16.5102 29.0403 18.2102 30.7403 21.3902 30.9503C21.6202 30.9803 21.8502 31.0003 22.1002 31.0003H29.9002C33.6002 31.0003 35.5502 29.2403 35.7402 25.7403C35.7502 25.5503 35.7602 25.3503 35.7602 25.1503V23.2003C35.7602 20.9903 34.2902 19.1303 32.2902 18.5203ZM27.2802 24.5003C27.7402 24.6603 28.3602 25.0003 28.3602 26.0603C28.3602 26.9703 27.6502 27.7003 26.7702 27.7003H26.5202V27.9203C26.5202 28.2103 26.2902 28.4403 26.0002 28.4403C25.7102 28.4403 25.4802 28.2103 25.4802 27.9203V27.7003H25.3902C24.4302 27.7003 23.6402 26.8903 23.6402 25.8903C23.6402 25.6003 23.8702 25.3703 24.1602 25.3703C24.4502 25.3703 24.6802 25.6003 24.6802 25.8903C24.6802 26.3103 25.0002 26.6603 25.3902 26.6603H25.4802V24.9703L24.7202 24.7003C24.2602 24.5403 23.6402 24.2003 23.6402 23.1403C23.6402 22.2303 24.3502 21.5003 25.2302 21.5003H25.4802V21.2803C25.4802 20.9903 25.7102 20.7603 26.0002 20.7603C26.2902 20.7603 26.5202 20.9903 26.5202 21.2803V21.5003H26.6102C27.5702 21.5003 28.3602 22.3103 28.3602 23.3103C28.3602 23.6003 28.1302 23.8303 27.8402 23.8303C27.5502 23.8303 27.3202 23.6003 27.3202 23.3103C27.3202 22.8903 27.0002 22.5403 26.6102 22.5403H26.5202V24.2303L27.2802 24.5003Z" fill="#5ED5A8"/>
<path d="M24.6797 23.14C24.6797 23.56 24.7997 23.62 25.0597 23.72L25.4797 23.87V22.54H25.2297C24.9197 22.54 24.6797 22.81 24.6797 23.14Z" fill="#5ED5A8"/>
</g>
<defs>
<filter id="filter0_d_217_9423" x="-2" y="-2" width="56" height="56" filterUnits="userSpaceOnUse" color-interpolation-filters="sRGB">
<feFlood flood-opacity="0" result="BackgroundImageFix"/>
<feColorMatrix in="SourceAlpha" type="matrix" values="0 0 0 0 0 0 0 0 0 0 0 0 0 0 0 0 0 0 127 0" result="hardAlpha"/>
<feOffset dy="5"/>
<feGaussianBlur stdDeviation="8"/>
<feComposite in2="hardAlpha" operator="out"/>
<feColorMatrix type="matrix" values="0 0 0 0 0.368627 0 0 0 0 0.835294 0 0 0 0 0.658824 0 0 0 0.25 0"/>
<feBlend mode="normal" in2="BackgroundImageFix" result="effect1_dropShadow_217_9423"/>
<feBlend mode="normal" in="SourceGraphic" in2="effect1_dropShadow_217_9423" result="shape"/>
</filter>
</defs>
</svg>
