<svg width="26" height="25" viewBox="0 0 26 25" fill="none" xmlns="http://www.w3.org/2000/svg">
<g clip-path="url(#clip0_217_24837)">
<path d="M25.9924 0H0.00761719C0.00341033 0 0 0.0031716 0 0.00708396V24.1728C0 24.1768 0.00341033 24.1799 0.00761719 24.1799H25.9924C25.9966 24.1799 26 24.1768 26 24.1728V0.00708396C26 0.0031716 25.9966 0 25.9924 0Z" fill="#1877F2"/>
<path d="M18.0578 15.5847L18.6367 12.09H15.0313V9.82311C15.0313 8.86914 15.534 7.93405 17.1488 7.93405H18.7891V4.95879C18.7891 4.95879 17.3012 4.72266 15.8793 4.72266C12.9086 4.72266 10.9688 6.39447 10.9688 9.42641V12.09H7.66797V15.5847H10.9688V24.1799H15.0313V15.5847H18.0578Z" fill="white"/>
</g>
<defs>
<clipPath id="clip0_217_24837">
<rect width="26" height="24.1799" rx="12.09" fill="white"/>
</clipPath>
</defs>
</svg>
