<svg width="26" height="25" viewBox="0 0 26 25" fill="none" xmlns="http://www.w3.org/2000/svg">
<g clip-path="url(#clip0_217_24836)">
<path d="M13 17.4546C10.3188 17.4546 8.125 15.7922 7.475 13.5254L2.03125 18.588C4.30625 21.9128 8.36875 24.1796 13 24.1796C15.5188 24.1796 17.875 23.4996 19.9062 22.2906L14.4625 17.2279C13.975 17.379 13.4875 17.4546 13 17.4546Z" fill="#34A853"/>
<path d="M26 10.4277C25.9187 10.0499 25.5938 9.82324 25.1875 9.82324H13C12.5125 9.82324 12.1875 10.1255 12.1875 10.5789V14.357C12.1875 14.8103 12.5125 15.1126 13 15.1126H17.3062C16.575 16.1704 15.5187 16.8505 14.4625 17.2283L19.9062 22.291C23.5625 20.1752 26 16.3971 26 12.0901C26 11.8634 26 11.7123 26 11.5612C26.0813 11.2589 26.0813 10.8811 26 10.4277Z" fill="#4285F4"/>
<path d="M7.23125 12.0898C7.23125 11.6364 7.3125 11.183 7.39375 10.7296L2.03125 5.66699C0.73125 7.55604 0 9.74733 0 12.0898C0 14.4322 0.73125 16.6235 2.03125 18.5125L7.475 13.4499C7.3125 12.9965 7.23125 12.5431 7.23125 12.0898Z" fill="#FBBC05"/>
<path d="M23.1562 4.53371C22.2625 3.47585 21.125 2.5691 19.9062 1.81349C17.875 0.680057 15.5188 0 13 0C8.36875 0 4.30625 2.26686 2.03125 5.66714L7.475 10.7298C8.125 8.46293 10.4 6.80057 13 6.80057C13.4875 6.80057 13.975 6.87613 14.4625 7.02726C15.1937 7.25394 15.8438 7.63175 16.575 8.16069C16.8187 8.38737 17.1438 8.38737 17.4688 8.23625L22.9125 5.7427C23.1562 5.66714 23.3188 5.44046 23.3188 5.21377C23.4 4.98709 23.3188 4.7604 23.1562 4.53371Z" fill="#EA4335"/>
</g>
<defs>
<clipPath id="clip0_217_24836">
<rect width="26" height="24.1798" fill="white"/>
</clipPath>
</defs>
</svg>
