<svg width="24" height="24" viewBox="0 0 24 24" fill="none" xmlns="http://www.w3.org/2000/svg">
<circle cx="12" cy="12" r="12" fill="url(#paint0_linear_697_806)"/>
<path fill-rule="evenodd" clip-rule="evenodd" d="M6.78474 6.98996L8.0514 6.31691L8.20042 6.61604L12.82 3.92387L12.522 3.69952L12.1494 3.47517L12.0004 3.40039L4.40042 7.81256V7.96213L6.56121 6.76561L6.78474 6.98996ZM6.7847 9.83168L10.4357 7.66299L10.5847 7.96212L15.2788 5.26994L14.9063 5.0456L14.5337 4.89603L14.3847 4.82125L4.40039 10.5795V10.7291L6.56118 9.53255L6.7847 9.83168ZM11.6278 8.41083L6.7847 11.1778L6.56118 10.8787L4.40039 12.15V11.9256L15.5769 5.49431L15.7259 5.56909L16.0984 5.79344L16.471 5.94301L11.7769 8.63518L11.6278 8.41083ZM6.7847 12.5239L12.82 9.08386L12.969 9.30821L17.6631 6.69082L17.2906 6.46647L16.918 6.24212L16.769 6.16734L4.40039 13.3465V13.496L6.56117 12.2995L6.7847 12.5239ZM14.0122 9.75692L6.7847 13.9448L6.56118 13.6456L4.40039 14.9169V14.6926L17.9612 6.8404L18.1847 6.98997L18.4827 7.13953L18.8553 7.36388L14.1612 10.0561L14.0122 9.75692ZM19.3024 7.663L19.1533 7.51343L4.40039 16.1134V16.263L6.56118 15.0665L6.7847 15.3656L14.0122 11.103L14.1612 11.4021L19.6004 8.33604V7.81256L19.3024 7.663ZM6.56115 16.4126L5.36899 17.1604L5.14546 17.0108L19.6004 8.70994V9.68212L14.1611 12.823L14.0121 12.5239L6.71017 16.7117L6.56115 16.4126ZM14.0121 13.9447L14.1611 14.2439L19.6003 11.0282V10.056L6.33758 17.7586L6.56111 17.8334L7.75327 17.0856L7.9768 17.3847L14.0121 13.9447ZM9.02003 17.8334L7.75336 18.5065L7.52983 18.4317L19.6004 11.4769V12.4491L14.1612 15.5899L14.0122 15.2908L9.16905 18.1326L9.02003 17.8334ZM8.94548 19.1795L10.2121 18.5065L10.3612 18.8056L14.0121 16.7117L14.1612 17.0108L19.6004 13.87V12.823L8.72195 19.1047L8.94548 19.1795ZM10.1377 19.9274L9.9142 19.7778L19.6005 14.2439V15.216L14.1613 18.3569L14.0122 18.0578L11.5534 19.4787L11.4044 19.1795L10.1377 19.9274ZM11.3298 20.6004L12.5219 19.8526L12.7455 20.1517L14.0121 19.4786L14.1611 19.7778L19.6004 16.6369V15.5899L11.1808 20.5256L11.3298 20.6004ZM13.7141 4.37256L14.0867 4.59691L9.39255 7.28908L9.24353 6.98995L6.7847 8.41082L6.56118 8.11169L4.40039 9.383V9.15865L13.1925 4.07343L13.3416 4.22299L13.7141 4.37256Z" fill="white"/>
<defs>
<linearGradient id="paint0_linear_697_806" x1="0" y1="24" x2="24" y2="24" gradientUnits="userSpaceOnUse">
<stop stop-color="#001C3A"/>
<stop offset="0.6" stop-color="#001E3D"/>
<stop offset="0.7" stop-color="#001F3F"/>
<stop offset="1" stop-color="#002042"/>
</linearGradient>
</defs>
</svg>
