<svg width="25" height="25" viewBox="0 0 25 25" fill="none" xmlns="http://www.w3.org/2000/svg">
<ellipse cx="12.0077" cy="12.009" rx="12.0077" ry="12.009" fill="#7833F6"/>
<path fill-rule="evenodd" clip-rule="evenodd" d="M7.70443 12.0601C7.89705 12.2522 8.15798 12.3601 8.43001 12.3601C8.70203 12.3601 8.96296 12.2522 9.15558 12.0601L12.0586 9.15676C12.2507 8.96412 12.3586 8.70316 12.3586 8.4311C12.3586 8.15904 12.2507 7.89809 12.0586 7.70544C11.866 7.51322 11.605 7.40527 11.3329 7.40527C11.0608 7.40527 10.7997 7.51322 10.6071 7.70544L7.70443 10.6084C7.51223 10.8011 7.4043 11.0621 7.4043 11.3343C7.4043 11.6064 7.51223 11.8675 7.70443 12.0601ZM11.7566 14.6609L14.6593 11.7579C14.8519 11.5657 15.1129 11.4578 15.385 11.4578C15.6571 11.4578 15.9182 11.5657 16.1108 11.7579C16.303 11.9506 16.4109 12.2116 16.4109 12.4838C16.4109 12.7559 16.303 13.017 16.1108 13.2096L13.2081 16.1126C13.0155 16.3048 12.7545 16.4128 12.4823 16.4128C12.2102 16.4128 11.9492 16.3048 11.7566 16.1126C11.5644 15.92 11.4564 15.6589 11.4564 15.3868C11.4564 15.1146 11.5644 14.8536 11.7566 14.6609ZM11.5441 13.2974C11.272 13.2974 11.011 13.1895 10.8184 12.9972C10.6262 12.8046 10.5183 12.5435 10.5183 12.2714C10.5183 11.9992 10.6262 11.7382 10.8184 11.5455L11.5441 10.8197C11.7368 10.6275 11.9978 10.5195 12.2699 10.5195C12.542 10.5195 12.803 10.6275 12.9957 10.8197C13.1879 11.0123 13.2958 11.2734 13.2958 11.5455C13.2958 11.8177 13.1879 12.0787 12.9957 12.2714L12.2699 12.9972C12.0773 13.1895 11.8163 13.2974 11.5441 13.2974Z" fill="white"/>
</svg>
