<svg width="24" height="24" viewBox="0 0 24 24" fill="none" xmlns="http://www.w3.org/2000/svg">
<path d="M12.0199 20.3502C9.43987 20.3502 6.86987 19.9402 4.41987 19.1202C3.50987 18.8202 2.81987 18.1702 2.51987 17.3502C2.21987 16.5302 2.31987 15.5902 2.80987 14.7702L4.07987 12.6502C4.35987 12.1802 4.60987 11.3002 4.60987 10.7502V8.65023C4.60987 4.56023 7.92987 1.24023 12.0199 1.24023C16.1099 1.24023 19.4299 4.56023 19.4299 8.65023V10.7502C19.4299 11.2902 19.6799 12.1802 19.9599 12.6502L21.2299 14.7702C21.6999 15.5502 21.7799 16.4802 21.4699 17.3302C21.1599 18.1802 20.4799 18.8302 19.6199 19.1202C17.1699 19.9502 14.5999 20.3502 12.0199 20.3502ZM12.0199 2.75023C8.75987 2.75023 6.10987 5.40023 6.10987 8.66023V10.7602C6.10987 11.5702 5.78987 12.7402 5.36987 13.4302L4.09987 15.5602C3.83987 15.9902 3.77987 16.4502 3.92987 16.8502C4.07987 17.2502 4.41987 17.5502 4.89987 17.7102C9.49987 19.2402 14.5599 19.2402 19.1599 17.7102C19.5899 17.5702 19.9199 17.2502 20.0699 16.8302C20.2299 16.4102 20.1799 15.9502 19.9499 15.5602L18.6799 13.4402C18.2599 12.7502 17.9399 11.5802 17.9399 10.7702V8.67023C17.9299 5.40023 15.2799 2.75023 12.0199 2.75023Z" fill="#5ED5A8"/>
<path opacity="0.1" d="M16 9C16 7.93913 15.5786 6.92172 14.8284 6.17157C14.0783 5.42143 13.0609 5 12 5C10.9391 5 9.92172 5.42143 9.17157 6.17157C8.42143 6.92172 8 7.93913 8 9L12 9H16Z" fill="#5ED5A8"/>
<path d="M11.75 19.75C10.76 19.75 9.8 19.35 9.1 18.65C8.4 17.95 8 16.99 8 16H9.5C9.5 16.59 9.74 17.17 10.16 17.59C10.58 18.01 11.16 18.25 11.75 18.25C12.99 18.25 14 17.24 14 16H15.5C15.5 18.07 13.82 19.75 11.75 19.75Z" fill="#5ED5A8"/>
</svg>
